<svg width="100" height="100" viewBox="0 0 100 100" fill="none" xmlns="http://www.w3.org/2000/svg">
<rect width="100" height="100" rx="22" fill="black"/>
<path d="M33.3457 54.707C34.608 54.7071 35.6862 54.9853 36.5801 55.542C37.474 56.0909 38.1603 56.8519 38.6387 57.8242C39.1169 58.7965 39.3555 59.9183 39.3555 61.1885V61.4346C39.3555 62.7048 39.1169 63.8304 38.6387 64.8105C38.1603 65.7829 37.474 66.5439 36.5801 67.0928C35.6862 67.6416 34.6158 67.916 33.3691 67.916C32.1147 67.916 31.0365 67.6415 30.1348 67.0928C29.233 66.5439 28.5428 65.7829 28.0645 64.8105C27.5862 63.8304 27.3467 62.7048 27.3467 61.4346V61.1885C27.3467 59.926 27.5861 58.8083 28.0645 57.8359C28.5428 56.8558 29.2291 56.0909 30.123 55.542C31.0247 54.9854 32.0991 54.707 33.3457 54.707ZM57.0459 54.707C58.1906 54.707 59.1747 54.8874 59.998 55.248C60.8292 55.6009 61.504 56.0129 62.0215 56.4834L61.998 60.1299H59.4102L58.9512 57.8594C58.7631 57.6713 58.5243 57.518 58.2344 57.4004C57.9442 57.2828 57.6495 57.2246 57.3516 57.2246C56.7244 57.2247 56.2026 57.3807 55.7871 57.6943C55.3795 58.0079 55.074 58.4551 54.8701 59.0352C54.6663 59.6153 54.5645 60.3174 54.5645 61.1406V61.4941C54.5645 62.3644 54.6779 63.082 54.9053 63.6465C55.1326 64.2029 55.4344 64.6143 55.8105 64.8809C56.1947 65.1474 56.6224 65.2812 57.0928 65.2812C57.6966 65.2812 58.1793 65.1242 58.54 64.8105C58.9085 64.4891 59.1597 64.0381 59.293 63.458H62.2334L62.2686 63.5283C62.1353 64.43 61.8686 65.2105 61.4688 65.8691C61.0767 66.5278 60.5193 67.0339 59.7979 67.3867C59.0843 67.7394 58.1748 67.916 57.0693 67.916C55.8462 67.916 54.7874 67.6416 53.8936 67.0928C53.0075 66.5439 52.325 65.7867 51.8467 64.8223C51.3685 63.8501 51.1299 62.7406 51.1299 61.4941V61.1406C51.1299 59.8861 51.3732 58.7769 51.8594 57.8125C52.3455 56.8481 53.031 56.0909 53.917 55.542C54.803 54.9853 55.8462 54.707 57.0459 54.707ZM69.5957 54.707C70.7484 54.707 71.7168 54.9348 72.501 55.3896C73.2851 55.8444 73.8813 56.4988 74.2891 57.3535C74.6968 58.2082 74.9004 59.2436 74.9004 60.459V62.3291H67.4199L67.3965 62.3994C67.4435 62.9562 67.5802 63.4544 67.8076 63.8936C68.0429 64.3248 68.3725 64.6661 68.7959 64.917C69.2193 65.1601 69.7331 65.2812 70.3369 65.2812C70.9642 65.2812 71.5488 65.2027 72.0898 65.0459C72.6386 64.8812 73.172 64.6417 73.6895 64.3281L74.6182 66.4453C74.0929 66.8687 73.4305 67.2216 72.6309 67.5039C71.8389 67.7784 70.9286 67.916 69.9014 67.916C68.6861 67.916 67.6234 67.6494 66.7139 67.1162C65.8044 66.5752 65.0985 65.8335 64.5967 64.8926C64.1029 63.9517 63.8564 62.8773 63.8564 61.6699V61.2002C63.8564 59.9378 64.0911 58.82 64.5615 57.8477C65.032 56.8675 65.6951 56.0987 66.5498 55.542C67.4122 54.9854 68.4276 54.7071 69.5957 54.707ZM81.9229 54.7305C82.8794 54.7305 83.754 54.8245 84.5459 55.0127C85.3457 55.193 86.0166 55.4325 86.5576 55.7305L86.5928 59.2119H84.2168L83.8516 57.542C83.64 57.3853 83.3894 57.2678 83.0996 57.1895C82.8173 57.111 82.4955 57.0713 82.1348 57.0713C81.5312 57.0713 81.0686 57.1927 80.7471 57.4355C80.4256 57.6786 80.2647 57.9927 80.2646 58.377C80.2646 58.5965 80.3199 58.8001 80.4297 58.9883C80.5473 59.1764 80.7743 59.3529 81.1113 59.5176C81.4485 59.6822 81.939 59.8393 82.582 59.9883C84.158 60.349 85.307 60.8318 86.0283 61.4355C86.7495 62.0315 87.1103 62.8703 87.1104 63.9521C87.1104 65.1362 86.6789 66.093 85.8164 66.8223C84.9617 67.5515 83.6792 67.916 81.9697 67.916C81.021 67.916 80.1348 67.8258 79.3115 67.6455C78.4961 67.4652 77.7117 67.2063 76.959 66.8691L76.9238 63.2705H79.3115L79.7705 65.1045C80.037 65.2378 80.3271 65.3444 80.6406 65.4229C80.962 65.5012 81.3268 65.54 81.7344 65.54C82.5028 65.54 83.0447 65.415 83.3584 65.1641C83.672 64.9131 83.8281 64.599 83.8281 64.2227C83.8281 63.8698 83.6594 63.5605 83.3223 63.2939C82.9929 63.0195 82.3307 62.78 81.335 62.5762C79.8294 62.2625 78.7194 61.7759 78.0059 61.1172C77.2926 60.4586 76.9356 59.6158 76.9355 58.5889C76.9355 57.8833 77.1122 57.2403 77.4648 56.6602C77.8255 56.0799 78.3713 55.6126 79.1006 55.2598C79.8376 54.9071 80.7783 54.7305 81.9229 54.7305ZM26.5234 55.2363H23.8896L23.7363 53.1895H18.1494V57.9062H24.1484V60.5527H18.1494V65.2578L19.9844 65.6104V67.6689H12.8916V65.6104L14.7148 65.2578V52.9668L12.8916 52.6133V50.5439H26.5234V55.2363ZM48.9775 54.707C49.1814 54.707 49.4054 54.7264 49.6484 54.7656C49.8914 54.797 50.1068 54.8406 50.2949 54.8955L49.9307 58.0596L48.2246 57.9648C47.7387 57.9414 47.3428 58.0239 47.0371 58.2119C46.7392 58.4001 46.4725 58.6707 46.2373 59.0234V65.2578L47.8838 65.6104V67.6689H41.1562V65.6104L42.8027 65.2578V57.3652L40.9795 57.0127V54.9424H46.002L46.1309 56.5186L46.1553 56.8008C46.4689 56.1108 46.8567 55.5892 47.3193 55.2363C47.7819 54.8835 48.3347 54.7071 48.9775 54.707ZM33.3457 57.3535C32.7576 57.3535 32.2709 57.5183 31.8867 57.8477C31.5026 58.1691 31.2204 58.62 31.04 59.2002C30.8675 59.7726 30.7812 60.4357 30.7812 61.1885V61.4346C30.7812 62.203 30.8675 62.8778 31.04 63.458C31.2204 64.0382 31.5026 64.4891 31.8867 64.8105C32.2709 65.1242 32.7654 65.2812 33.3691 65.2812C33.965 65.2812 34.4508 65.1202 34.8271 64.7988C35.2035 64.4773 35.4827 64.0304 35.6631 63.458C35.8434 62.8778 35.9336 62.2029 35.9336 61.4346V61.1885C35.9336 60.4358 35.8434 59.7726 35.6631 59.2002C35.4827 58.6199 35.1997 58.1692 34.8154 57.8477C34.4391 57.5184 33.9493 57.3536 33.3457 57.3535ZM69.6543 57.248C69.1997 57.2481 68.8155 57.3693 68.502 57.6123C68.1883 57.8475 67.9411 58.1733 67.7607 58.5889C67.5883 59.0044 67.4709 59.4748 67.4082 60L67.4434 60.0586H71.6895V59.7529C71.6894 59.2354 71.6187 58.7924 71.4775 58.4238C71.3443 58.0476 71.125 57.7576 70.8193 57.5537C70.5214 57.3498 70.1326 57.248 69.6543 57.248Z" fill="white"/>
<path d="M63.2471 44.2285C63.1843 44.4815 63.1533 44.7455 63.1533 45.0195C63.1533 45.9471 63.4666 46.411 64.0938 46.4111C64.6793 46.4111 65.1814 46.1685 65.5996 45.6836C66.0178 45.1776 66.3526 44.4923 66.6035 43.6279L69.2021 32.0732H73.75L69.458 51.8193C69.0398 53.8435 68.2969 55.2462 67.2305 56.0264C66.185 56.8063 65.0244 57.1963 63.749 57.1963C62.7662 57.1963 61.8983 56.8694 61.1455 56.2158C60.4136 55.5833 60.0479 54.7713 60.0479 53.7803C60.0479 52.8526 60.2783 52.0933 60.7383 51.5029C61.1982 50.9128 61.7937 50.4486 62.5254 50.1113C63.2573 49.774 64.2409 49.4157 65.4746 49.0361L65.7881 47.6445C64.7216 48.8674 63.4456 49.4795 61.9609 49.4795C60.9573 49.4795 60.1419 49.1628 59.5146 48.5303C58.9082 47.8977 58.6045 46.9487 58.6045 45.6836C58.6045 45.1565 58.6882 44.4712 58.8555 43.6279L61.4541 32.0732H65.9707L63.2471 44.2285ZM65.2549 50.0488C64.1466 50.4284 63.289 50.8709 62.6826 51.377C62.0763 51.883 61.7725 52.5367 61.7725 53.3379C61.7726 53.5908 61.8986 53.8224 62.1494 54.0332C62.4003 54.2651 62.6929 54.3808 63.0273 54.3809C63.4037 54.3809 63.7592 54.1808 64.0938 53.7803C64.4283 53.4007 64.6897 52.7785 64.8779 51.9141L65.2549 50.0488ZM36.9463 25.5293C38.64 25.5293 39.9885 25.9303 40.9922 26.7314C42.0168 27.5326 42.5292 28.6077 42.5293 29.957C42.5293 30.8426 42.3092 31.5602 41.8701 32.1084C41.4311 32.6562 40.8562 32.9307 40.1455 32.9307C39.3511 32.9307 38.7133 32.6036 38.2324 31.9502C38.6297 31.655 38.9428 31.2642 39.1729 30.7793C39.4028 30.2945 39.5185 29.7887 39.5186 29.2617C39.5186 28.587 39.3192 28.049 38.9219 27.6484C38.5246 27.2479 37.981 27.0479 37.291 27.0479C36.4546 27.0479 35.7644 27.3534 35.2207 27.9648C34.698 28.5552 34.4365 29.3145 34.4365 30.2422C34.4366 31.0855 34.6773 31.8764 35.1582 32.6143C35.6392 33.3311 36.3925 34.259 37.417 35.3975C38.2532 36.3038 38.9221 37.0838 39.4238 37.7373C39.9466 38.3909 40.3857 39.1502 40.7412 40.0146C41.1176 40.858 41.3057 41.7756 41.3057 42.7666C41.3056 44.1158 40.9294 45.3383 40.1768 46.4346C39.445 47.5309 38.431 48.3958 37.1348 49.0283C35.8592 49.6609 34.4365 49.9775 32.8682 49.9775C31.5509 49.9775 30.3904 49.7451 29.3867 49.2812C28.3831 48.8174 27.6091 48.1748 27.0654 47.3525C26.5217 46.5091 26.25 45.5388 26.25 44.4424C26.25 43.5147 26.4381 42.6711 26.8145 41.9121C27.2117 41.1531 27.7346 40.5521 28.3828 40.1094C29.052 39.6666 29.7845 39.4453 30.5791 39.4453C31.3108 39.4454 31.9279 39.6352 32.4297 40.0146C32.9314 40.3731 33.2447 40.8797 33.3701 41.5332C32.2829 41.5332 31.4148 41.8276 30.7666 42.418C30.1184 42.9873 29.7949 43.7678 29.7949 44.7588C29.7949 45.6654 30.0667 46.3932 30.6104 46.9414C31.154 47.4894 31.8754 47.7637 32.7744 47.7637C33.8826 47.7637 34.792 47.3942 35.5029 46.6562C36.2348 45.8972 36.6006 44.9481 36.6006 43.8096C36.6005 42.8187 36.3288 41.8806 35.7852 40.9951C35.2415 40.1096 34.4261 39.0345 33.3389 37.7695C32.2097 36.4623 31.3521 35.3447 30.7666 34.417C30.202 33.4682 29.9199 32.4348 29.9199 31.3174C29.9199 30.221 30.2237 29.2405 30.8301 28.376C31.4365 27.4905 32.2725 26.7941 33.3389 26.2881C34.4053 25.7821 35.608 25.5293 36.9463 25.5293ZM48.2529 38.4014C49.6338 37.8957 51.1381 36.0471 51.6221 35.3457C52.1058 34.6446 52.4954 33.943 52.9609 32.0732H57.1504C57.15 32.0774 56.9742 33.9573 55.5791 35.7021C54.1876 37.4424 50.7172 39.0729 50.6914 39.085C54.2199 39.0851 54.8805 41.6556 54.9961 45.3594C54.9961 47.0424 56.7434 46.7975 57.9072 46.3301C57.4417 47.7324 56.9515 49.5977 54.4004 49.5977C52.1336 49.5976 50.4483 48.384 50.4482 45.9922C50.4482 43.9929 50.925 41.4121 49.4492 41.1504C48.9388 41.0599 47.7287 41.1504 47.4326 42.3564L45.9316 49.4082H41.415L46.0361 27.3994H50.6914L48.2529 38.4014Z" fill="#04E3FF"/>
</svg>
