<svg xmlns="http://www.w3.org/2000/svg" xmlns:xlink="http://www.w3.org/1999/xlink" contentStyleType="text/css" data-diagram-type="DESCRIPTION" height="566px" preserveAspectRatio="none" style="width:1798px;height:566px;background:#FFFFFF;" version="1.1" viewBox="0 0 1798 566" width="1798px" zoomAndPan="magnify"><title>vscode-hexo-github &#8212; Components &amp; Data Flow</title><defs/><g><g class="title" data-source-line="1"><text fill="#000000" font-family="sans-serif" font-size="14" font-weight="bold" lengthAdjust="spacing" textLength="379.3672" x="702.3164" y="22.9951">vscode-hexo-github &#8212; Components &amp; Data Flow</text></g><!--cluster VSCode Extension--><g class="cluster" data-entity="VSCode Extension" data-source-line="3" data-uid="ent0002" id="cluster_VSCode Extension"><path d="M857.5,43.2969 L1001.166,43.2969 A3.75,3.75 0 0 1 1003.666,45.7969 L1010.666,65.5938 L1788.5,65.5938 A2.5,2.5 0 0 1 1791,68.0938 L1791,430.7969 A2.5,2.5 0 0 1 1788.5,433.2969 L857.5,433.2969 A2.5,2.5 0 0 1 855,430.7969 L855,45.7969 A2.5,2.5 0 0 1 857.5,43.2969" fill="none" style="stroke:#000000;stroke-width:1.5;"/><line style="stroke:#000000;stroke-width:1.5;" x1="855" x2="1010.666" y1="65.5938" y2="65.5938"/><text fill="#000000" font-family="sans-serif" font-size="14" font-weight="bold" lengthAdjust="spacing" textLength="142.666" x="859" y="58.292">VSCode Extension</text></g><!--cluster Local Machine--><g class="cluster" data-entity="Local Machine" data-source-line="13" data-uid="ent0010" id="cluster_Local Machine"><polygon fill="none" points="16,337.2969,26,327.2969,369,327.2969,369,427.2969,359,437.2969,16,437.2969,16,337.2969" style="stroke:#181818;stroke-width:1;"/><line style="stroke:#181818;stroke-width:1;" x1="359" x2="369" y1="337.2969" y2="327.2969"/><line style="stroke:#181818;stroke-width:1;" x1="16" x2="359" y1="337.2969" y2="337.2969"/><line style="stroke:#181818;stroke-width:1;" x1="359" x2="359" y1="337.2969" y2="437.2969"/><text fill="#000000" font-family="sans-serif" font-size="14" font-weight="bold" lengthAdjust="spacing" textLength="111.8633" x="132.5684" y="353.292">Local Machine</text></g><!--cluster GitHub--><g class="cluster" data-entity="GitHub" data-source-line="18" data-uid="ent0013" id="cluster_GitHub"><path d="M408.184,349.4792 C414.986,333.079 429.3311,333.8698 437.8148,347.8384 C444.8097,335.9908 458.4573,332.7938 466.3089,346.8977 C474.6032,331.2518 489.823,328.6021 500.2062,344.6647 C509.431,332.1972 519.9203,330.5606 528.2265,345.6003 C535.3191,334.2716 545.2247,331.1589 553.8448,343.9799 C561.6831,325.3023 574.7038,323.2646 587.0683,339.697 C596.241,325.1267 609.3523,326.6619 615.5697,342.4698 C622.7407,326.9153 636.3947,328.4313 643.9481,342.0984 C652.028,331.1563 664.9117,331.6943 672.0143,343.3143 C681.9831,332.397 691.9557,334.0002 699.4288,346.2657 C708.8089,330.7258 723.0592,328.8089 732.568,346.136 C739.9232,335.5516 750.5344,332.6956 758.2094,345.7897 C768.0671,328.4871 782.1835,328.9709 791.2716,346.5198 C804.8915,331.2518 813.9168,336.4333 823,351.2969 C823.9115,350.9997 824.6284,351.4392 824.4352,352.481 C839.3946,358.2486 843.0359,371.3609 829.5236,382.0312 C843.0022,392.2141 845.5795,405.6659 829.1422,415.5079 C845.2223,421.6455 845.9523,436.9073 832.1349,445.9811 C842.6754,454.8514 842.4292,464.9287 829.7299,471.619 C844.1103,480.9145 842.3272,494.373 827.5622,501.5582 C839.1247,517.7486 839.3132,533.0824 816,538.2969 C818.0863,539.4568 818.0711,541.5259 816.179,542.8425 C806.9042,553.167 796.4361,553.1749 789.1967,540.4588 C780.7661,555.6447 766.87,555.2236 759.6899,539.2737 C752.5682,552.6783 740.1661,552.4826 732.7899,539.5334 C724.7136,556.4114 714.1768,556.5113 703.5071,541.9489 C696.6228,557.1779 682.4061,558.4978 673.4099,544.0938 C665.2148,556.232 652.7949,555.995 644.3948,544.344 C637.078,559.196 624.847,556.4847 617.376,544.4992 C608.6044,556.3034 595.1753,555.7915 587.3317,543.3494 C576.2652,555.949 565.2118,557.4179 557.319,540.1593 C551.1118,556.1336 539.9031,556.3385 529.1504,544.8159 C520.6333,557.4427 506.4188,555.0381 500.0325,542.3637 C489.4458,556.1022 479.1022,556.7699 467.9368,543.0398 C459.2027,558.0206 445.7193,554.2143 438.8889,541.0734 C422.1192,558.4709 407.4478,553.9019 401,531.2969 C403.3747,531.9475 403.5128,533.3421 402.1728,535.1294 C384.8717,524.4855 383.5409,514.2487 401.0556,502.4159 C386.0995,496.8052 386.7921,483.4932 398.5908,475.4381 C384.8133,467.0945 383.4467,454.442 396.7241,444.4676 C383.5845,433.1006 385.9567,422.7831 399.6191,413.9595 C384.9311,404.8684 384.3942,391.7429 400.9046,383.9901 C387.3148,367.4326 383.7709,354.094 408,344.2969 C410.6174,345.8836 410.4833,347.7179 408.184,349.4792" fill="none" style="stroke:#181818;stroke-width:1;"/><text fill="#000000" font-family="sans-serif" font-size="14" font-weight="bold" lengthAdjust="spacing" textLength="54.6875" x="584.6563" y="362.292">GitHub</text></g><!--entity UI--><g class="entity" data-entity="UI" data-source-line="4" data-uid="ent0003" id="entity_UI"><rect fill="#F1F1F1" height="46.2969" rx="2.5" ry="2.5" style="stroke:#181818;stroke-width:0.5;" width="197.9307" x="1387" y="86.7969"/><rect fill="#F1F1F1" height="10" style="stroke:#181818;stroke-width:0.5;" width="15" x="1564.9307" y="91.7969"/><rect fill="#F1F1F1" height="2" style="stroke:#181818;stroke-width:0.5;" width="4" x="1562.9307" y="93.7969"/><rect fill="#F1F1F1" height="2" style="stroke:#181818;stroke-width:0.5;" width="4" x="1562.9307" y="97.7969"/><text fill="#000000" font-family="sans-serif" font-size="14" lengthAdjust="spacing" textLength="157.9307" x="1402" y="119.792">TreeView / Commands</text></g><!--entity Listeners--><g class="entity" data-entity="Listeners" data-source-line="5" data-uid="ent0004" id="entity_Listeners"><rect fill="#F1F1F1" height="62.5938" rx="2.5" ry="2.5" style="stroke:#181818;stroke-width:0.5;" width="244.0732" x="1108" y="78.2969"/><rect fill="#F1F1F1" height="10" style="stroke:#181818;stroke-width:0.5;" width="15" x="1332.0732" y="83.2969"/><rect fill="#F1F1F1" height="2" style="stroke:#181818;stroke-width:0.5;" width="4" x="1330.0732" y="85.2969"/><rect fill="#F1F1F1" height="2" style="stroke:#181818;stroke-width:0.5;" width="4" x="1330.0732" y="89.2969"/><text fill="#000000" font-family="sans-serif" font-size="14" lengthAdjust="spacing" textLength="108.1787" x="1123" y="111.292">Event Listeners</text><text fill="#000000" font-family="sans-serif" font-size="14" lengthAdjust="spacing" textLength="204.0732" x="1123" y="127.5889">(ActiveEditor + FS Watchers)</text></g><!--entity Preview--><g class="entity" data-entity="Preview" data-source-line="6" data-uid="ent0005" id="entity_Preview"><rect fill="#F1F1F1" height="46.2969" rx="2.5" ry="2.5" style="stroke:#181818;stroke-width:0.5;" width="210.6455" x="1171.5" y="371.2969"/><rect fill="#F1F1F1" height="10" style="stroke:#181818;stroke-width:0.5;" width="15" x="1362.1455" y="376.2969"/><rect fill="#F1F1F1" height="2" style="stroke:#181818;stroke-width:0.5;" width="4" x="1360.1455" y="378.2969"/><rect fill="#F1F1F1" height="2" style="stroke:#181818;stroke-width:0.5;" width="4" x="1360.1455" y="382.2969"/><text fill="#000000" font-family="sans-serif" font-size="14" lengthAdjust="spacing" textLength="170.6455" x="1186.5" y="404.292">Webview: Preview Panel</text></g><!--entity ConfigUI--><g class="entity" data-entity="ConfigUI" data-source-line="7" data-uid="ent0006" id="entity_ConfigUI"><rect fill="#F1F1F1" height="46.2969" rx="2.5" ry="2.5" style="stroke:#181818;stroke-width:0.5;" width="303.0947" x="1204.5" y="218.2969"/><rect fill="#F1F1F1" height="10" style="stroke:#181818;stroke-width:0.5;" width="15" x="1487.5947" y="223.2969"/><rect fill="#F1F1F1" height="2" style="stroke:#181818;stroke-width:0.5;" width="4" x="1485.5947" y="225.2969"/><rect fill="#F1F1F1" height="2" style="stroke:#181818;stroke-width:0.5;" width="4" x="1485.5947" y="229.2969"/><text fill="#000000" font-family="sans-serif" font-size="14" lengthAdjust="spacing" textLength="263.0947" x="1219.5" y="251.292">Webview: Config Editor (Vue3 + Vite)</text></g><!--entity HexoSvc--><g class="entity" data-entity="HexoSvc" data-source-line="8" data-uid="ent0007" id="entity_HexoSvc"><rect fill="#F1F1F1" height="46.2969" rx="2.5" ry="2.5" style="stroke:#181818;stroke-width:0.5;" width="126.0781" x="871" y="218.2969"/><rect fill="#F1F1F1" height="10" style="stroke:#181818;stroke-width:0.5;" width="15" x="977.0781" y="223.2969"/><rect fill="#F1F1F1" height="2" style="stroke:#181818;stroke-width:0.5;" width="4" x="975.0781" y="225.2969"/><rect fill="#F1F1F1" height="2" style="stroke:#181818;stroke-width:0.5;" width="4" x="975.0781" y="229.2969"/><text fill="#000000" font-family="sans-serif" font-size="14" lengthAdjust="spacing" textLength="86.0781" x="886" y="251.292">hexoService</text></g><!--entity GitSvc--><g class="entity" data-entity="GitSvc" data-source-line="9" data-uid="ent0008" id="entity_GitSvc"><rect fill="#F1F1F1" height="46.2969" rx="2.5" ry="2.5" style="stroke:#181818;stroke-width:0.5;" width="136.6396" x="1032.5" y="218.2969"/><rect fill="#F1F1F1" height="10" style="stroke:#181818;stroke-width:0.5;" width="15" x="1149.1396" y="223.2969"/><rect fill="#F1F1F1" height="2" style="stroke:#181818;stroke-width:0.5;" width="4" x="1147.1396" y="225.2969"/><rect fill="#F1F1F1" height="2" style="stroke:#181818;stroke-width:0.5;" width="4" x="1147.1396" y="229.2969"/><text fill="#000000" font-family="sans-serif" font-size="14" lengthAdjust="spacing" textLength="96.6396" x="1047.5" y="251.292">githubService</text></g><!--entity Provider--><g class="entity" data-entity="Provider" data-source-line="10" data-uid="ent0009" id="entity_Provider"><rect fill="#F1F1F1" height="46.2969" rx="2.5" ry="2.5" style="stroke:#181818;stroke-width:0.5;" width="201.3965" x="871.5" y="86.7969"/><rect fill="#F1F1F1" height="10" style="stroke:#181818;stroke-width:0.5;" width="15" x="1052.8965" y="91.7969"/><rect fill="#F1F1F1" height="2" style="stroke:#181818;stroke-width:0.5;" width="4" x="1050.8965" y="93.7969"/><rect fill="#F1F1F1" height="2" style="stroke:#181818;stroke-width:0.5;" width="4" x="1050.8965" y="97.7969"/><text fill="#000000" font-family="sans-serif" font-size="14" lengthAdjust="spacing" textLength="161.3965" x="886.5" y="119.792">BlogsTreeDataProvider</text></g><!--entity EXT--><g class="entity" data-entity="EXT" data-source-line="14" data-uid="ent0011" id="entity_EXT"><path d="M225,381.7969 C225,371.7969 289.0483,371.7969 289.0483,371.7969 C289.0483,371.7969 353.0967,371.7969 353.0967,381.7969 L353.0967,407.0938 C353.0967,417.0938 289.0483,417.0938 289.0483,417.0938 C289.0483,417.0938 225,417.0938 225,407.0938 L225,381.7969" fill="#F1F1F1" style="stroke:#181818;stroke-width:0.5;"/><path d="M225,381.7969 C225,391.7969 289.0483,391.7969 289.0483,391.7969 C289.0483,391.7969 353.0967,391.7969 353.0967,381.7969" fill="none" style="stroke:#181818;stroke-width:0.5;"/><text fill="#000000" font-family="sans-serif" font-size="14" lengthAdjust="spacing" textLength="108.0967" x="235" y="408.792">EXT_HOME_DIR</text></g><!--entity SITE--><g class="entity" data-entity="SITE" data-source-line="15" data-uid="ent0012" id="entity_SITE"><path d="M34.5,367.2969 L75.5,367.2969 A3.75,3.75 0 0 1 78,369.7969 L85,388.2969 L187.9063,388.2969 A2.5,2.5 0 0 1 190.4063,390.7969 L190.4063,419.0938 A2.5,2.5 0 0 1 187.9063,421.5938 L34.5,421.5938 A2.5,2.5 0 0 1 32,419.0938 L32,369.7969 A2.5,2.5 0 0 1 34.5,367.2969" fill="#F1F1F1" style="stroke:#181818;stroke-width:0.5;"/><line style="stroke:#181818;stroke-width:0.5;" x1="32" x2="85" y1="388.2969" y2="388.2969"/><text fill="#000000" font-family="sans-serif" font-size="14" lengthAdjust="spacing" textLength="128.4063" x="42" y="408.292">Hexo Site (siteDir)</text></g><!--entity OAuth--><g class="entity" data-entity="OAuth" data-source-line="19" data-uid="ent0014" id="entity_OAuth"><rect fill="#F1F1F1" height="46.2969" rx="2.5" ry="2.5" style="stroke:#181818;stroke-width:0.5;" width="83.832" x="566" y="371.2969"/><rect fill="#F1F1F1" height="10" style="stroke:#181818;stroke-width:0.5;" width="15" x="629.832" y="376.2969"/><rect fill="#F1F1F1" height="2" style="stroke:#181818;stroke-width:0.5;" width="4" x="627.832" y="378.2969"/><rect fill="#F1F1F1" height="2" style="stroke:#181818;stroke-width:0.5;" width="4" x="627.832" y="382.2969"/><text fill="#000000" font-family="sans-serif" font-size="14" lengthAdjust="spacing" textLength="43.832" x="581" y="404.292">OAuth</text></g><!--entity SrcRepo--><g class="entity" data-entity="SrcRepo" data-source-line="20" data-uid="ent0015" id="entity_SrcRepo"><rect fill="#F1F1F1" height="46.2969" rx="2.5" ry="2.5" style="stroke:#181818;stroke-width:0.5;" width="128.6348" x="685.5" y="371.2969"/><rect fill="#F1F1F1" height="10" style="stroke:#181818;stroke-width:0.5;" width="15" x="794.1348" y="376.2969"/><rect fill="#F1F1F1" height="2" style="stroke:#181818;stroke-width:0.5;" width="4" x="792.1348" y="378.2969"/><rect fill="#F1F1F1" height="2" style="stroke:#181818;stroke-width:0.5;" width="4" x="792.1348" y="382.2969"/><text fill="#000000" font-family="sans-serif" font-size="14" lengthAdjust="spacing" textLength="88.6348" x="700.5" y="404.292">Source Repo</text></g><!--entity PagesRepo--><g class="entity" data-entity="PagesRepo" data-source-line="21" data-uid="ent0016" id="entity_PagesRepo"><rect fill="#F1F1F1" height="46.2969" rx="2.5" ry="2.5" style="stroke:#181818;stroke-width:0.5;" width="122.0586" x="409" y="371.2969"/><rect fill="#F1F1F1" height="10" style="stroke:#181818;stroke-width:0.5;" width="15" x="511.0586" y="376.2969"/><rect fill="#F1F1F1" height="2" style="stroke:#181818;stroke-width:0.5;" width="4" x="509.0586" y="378.2969"/><rect fill="#F1F1F1" height="2" style="stroke:#181818;stroke-width:0.5;" width="4" x="509.0586" y="382.2969"/><text fill="#000000" font-family="sans-serif" font-size="14" lengthAdjust="spacing" textLength="82.0586" x="424" y="404.292">Pages Repo</text></g><!--entity Pages--><g class="entity" data-entity="Pages" data-source-line="22" data-uid="ent0017" id="entity_Pages"><rect fill="#F1F1F1" height="46.2969" rx="2.5" ry="2.5" style="stroke:#181818;stroke-width:0.5;" width="266.4951" x="409" y="484.2969"/><rect fill="#F1F1F1" height="10" style="stroke:#181818;stroke-width:0.5;" width="15" x="655.4951" y="489.2969"/><rect fill="#F1F1F1" height="2" style="stroke:#181818;stroke-width:0.5;" width="4" x="653.4951" y="491.2969"/><rect fill="#F1F1F1" height="2" style="stroke:#181818;stroke-width:0.5;" width="4" x="653.4951" y="495.2969"/><text fill="#000000" font-family="sans-serif" font-size="14" lengthAdjust="spacing" textLength="226.4951" x="424" y="517.292">GitHub Pages (HTTPS + CNAME)</text></g><!--link UI to HexoSvc--><g class="link" data-entity-1="UI" data-entity-2="HexoSvc" data-source-line="25" data-uid="lnk18" id="link_UI_HexoSvc"><path d="M1410.31,132.8569 C1396.97,136.1169 1383.15,139.1169 1370,141.2969 C1323.95,148.9269 986.69,141.2169 951,171.2969 C937.6,182.5869 934.1097,196.5929 933.4097,212.1529" fill="none" id="UI-to-HexoSvc" style="stroke:#181818;stroke-width:1;"/><polygon fill="#181818" points="933.14,218.1469,937.5404,209.3357,933.3647,213.1519,929.5485,208.9762,933.14,218.1469" style="stroke:#181818;stroke-width:1;"/><text fill="#000000" font-family="sans-serif" font-size="13" lengthAdjust="spacing" textLength="201.7158" x="952" y="184.3638">create/publish/generate/server</text></g><!--link UI to GitSvc--><g class="link" data-entity-1="UI" data-entity-2="GitSvc" data-source-line="26" data-uid="lnk19" id="link_UI_GitSvc"><path d="M1406.04,132.8169 C1394,135.8469 1381.7,138.7669 1370,141.2969 C1292.01,158.1269 1266.31,139.8069 1193,171.2969 C1166.95,182.4869 1145.9688,198.4943 1128.4688,214.0943" fill="none" id="UI-to-GitSvc" style="stroke:#181818;stroke-width:1;"/><polygon fill="#181818" points="1123.99,218.0869,1133.3699,215.0839,1127.7223,214.7598,1128.0465,209.1122,1123.99,218.0869" style="stroke:#181818;stroke-width:1;"/><text fill="#000000" font-family="sans-serif" font-size="13" lengthAdjust="spacing" textLength="143.7871" x="1194" y="184.3638">login/pull/push/deploy</text></g><!--link UI to Preview--><g class="link" data-entity-1="UI" data-entity-2="Preview" data-source-line="27" data-uid="lnk20" id="link_UI_Preview"><path d="M1514.76,132.9869 C1525.8,143.2969 1537.14,156.5469 1543,171.2969 C1553.76,198.4069 1548.68,233.8969 1525,264.2969 C1482.94,318.2769 1417.6433,349.9452 1362.3733,369.2852" fill="none" id="UI-to-Preview" style="stroke:#181818;stroke-width:1;"/><polygon fill="#181818" points="1356.71,371.2669,1366.5261,372.0699,1361.4294,369.6155,1363.8838,364.5188,1356.71,371.2669" style="stroke:#181818;stroke-width:1;"/><text fill="#000000" font-family="sans-serif" font-size="13" lengthAdjust="spacing" textLength="195.6855" x="1547" y="245.8638">open/refresh via postMessage</text></g><!--link UI to ConfigUI--><g class="link" data-entity-1="UI" data-entity-2="ConfigUI" data-source-line="28" data-uid="lnk21" id="link_UI_ConfigUI"><path d="M1513.5,132.9669 C1529.91,148.9069 1545.21,170.6269 1532,188.2969 C1523.18,200.0969 1503.53,208.5572 1474.66,216.5972" fill="none" id="UI-to-ConfigUI" style="stroke:#181818;stroke-width:1;"/><polygon fill="#181818" points="1468.88,218.2069,1478.6232,219.6457,1473.6967,216.8655,1476.4769,211.939,1468.88,218.2069" style="stroke:#181818;stroke-width:1;"/></g><!--link ConfigUI to UI--><g class="link" data-entity-1="ConfigUI" data-entity-2="UI" data-source-line="29" data-uid="lnk22" id="link_ConfigUI_UI"><path d="M1348.35,218.0669 C1344.83,203.6269 1343.15,185.0069 1352,171.2969 C1363.08,154.1469 1374.9102,144.3919 1393.3802,135.5319" fill="none" id="ConfigUI-to-UI" style="stroke:#181818;stroke-width:1;"/><polygon fill="#181818" points="1398.79,132.9369,1388.9453,133.2229,1394.2819,135.0994,1392.4054,140.436,1398.79,132.9369" style="stroke:#181818;stroke-width:1;"/><text fill="#000000" font-family="sans-serif" font-size="13" lengthAdjust="spacing" textLength="170.0981" x="1353" y="184.3638">postMessage(save-config)</text></g><!--link HexoSvc to SITE--><g class="link" data-entity-1="HexoSvc" data-entity-2="SITE" data-source-line="30" data-uid="lnk23" id="link_HexoSvc_SITE"><path d="M870.97,246.9369 C705.59,259.4169 267.77,294.3869 207,319.2969 C180.32,330.2269 159.125,367.5939 141.065,384.2139" fill="none" id="HexoSvc-to-SITE" style="stroke:#181818;stroke-width:1;"/><polygon fill="#181818" points="136.65,388.2769,145.9812,385.1257,140.3292,384.8911,140.5639,379.2391,136.65,388.2769" style="stroke:#181818;stroke-width:1;"/></g><!--link HexoSvc to EXT--><g class="link" data-entity-1="HexoSvc" data-entity-2="EXT" data-source-line="31" data-uid="lnk24" id="link_HexoSvc_EXT"><path d="M870.65,241.6469 C766.98,242.6769 556.26,253.5869 393,319.2969 C362.37,331.6269 336.7096,350.7552 316.8096,367.8652" fill="none" id="HexoSvc-to-EXT" style="stroke:#181818;stroke-width:1;"/><polygon fill="#181818" points="312.26,371.7769,321.6922,368.9424,316.0513,368.5171,316.4765,362.8763,312.26,371.7769" style="stroke:#181818;stroke-width:1;"/></g><!--link HexoSvc to Preview--><g class="link" data-entity-1="HexoSvc" data-entity-2="Preview" data-source-line="32" data-uid="lnk25" id="link_HexoSvc_Preview"><path d="M984.24,264.4169 C1049.28,293.0469 1156.4487,340.2292 1221.4087,368.8292" fill="none" id="HexoSvc-to-Preview" style="stroke:#181818;stroke-width:1;stroke-dasharray:7.0,7.0;"/><polygon fill="#181818" points="1226.9,371.2469,1220.2748,363.9595,1222.3239,369.2321,1217.0512,371.2813,1226.9,371.2469" style="stroke:#181818;stroke-width:1;"/><text fill="#000000" font-family="sans-serif" font-size="13" lengthAdjust="spacing" textLength="175.0747" x="1085" y="307.3638">preview route / restart info</text></g><!--link GitSvc to OAuth--><g class="link" data-entity-1="GitSvc" data-entity-2="OAuth" data-source-line="33" data-uid="lnk26" id="link_GitSvc_OAuth"><path d="M1032.13,260.5169 C1026.35,261.8669 1020.58,263.1469 1015,264.2969 C862.08,295.9069 803.25,241.2569 668,319.2969 C646.94,331.4469 633.397,348.9201 623.037,365.9601" fill="none" id="GitSvc-to-OAuth" style="stroke:#181818;stroke-width:1;"/><polygon fill="#181818" points="619.92,371.0869,628.0134,365.4747,622.5175,366.8145,621.1776,361.3186,619.92,371.0869" style="stroke:#181818;stroke-width:1;"/></g><!--link GitSvc to SrcRepo--><g class="link" data-entity-1="GitSvc" data-entity-2="SrcRepo" data-source-line="34" data-uid="lnk27" id="link_GitSvc_SrcRepo"><path d="M1032.34,261.2069 C971.07,278.5469 886.35,303.8169 855,319.2969 C826.4,333.4169 801.69,351.1173 781.3,367.2973" fill="none" id="GitSvc-to-SrcRepo" style="stroke:#181818;stroke-width:1;"/><polygon fill="#181818" points="776.6,371.0269,786.1364,368.5658,780.5167,367.9189,781.1636,362.2991,776.6,371.0269" style="stroke:#181818;stroke-width:1;"/></g><!--link GitSvc to PagesRepo--><g class="link" data-entity-1="GitSvc" data-entity-2="PagesRepo" data-source-line="35" data-uid="lnk28" id="link_GitSvc_PagesRepo"><path d="M1032.21,260.9469 C1026.41,262.1969 1020.62,263.3369 1015,264.2969 C809.43,299.4169 734.53,224.0469 549,319.2969 C524.59,331.8269 506.2637,349.6063 491.6337,366.4563" fill="none" id="GitSvc-to-PagesRepo" style="stroke:#181818;stroke-width:1;"/><polygon fill="#181818" points="487.7,370.9869,496.6209,366.8134,490.9781,367.2114,490.5801,361.5685,487.7,370.9869" style="stroke:#181818;stroke-width:1;"/></g><!--link PagesRepo to Pages--><g class="link" data-entity-1="PagesRepo" data-entity-2="Pages" data-source-line="36" data-uid="lnk29" id="link_PagesRepo_Pages"><path d="M484.4,417.4969 C496.95,436.8569 511.8151,459.7529 524.3651,479.1029" fill="none" id="PagesRepo-to-Pages" style="stroke:#181818;stroke-width:1;"/><polygon fill="#181818" points="527.63,484.1369,526.0886,474.4094,524.9093,479.9419,519.3767,478.7626,527.63,484.1369" style="stroke:#181818;stroke-width:1;"/></g><!--link Provider to SITE--><g class="link" data-entity-1="Provider" data-entity-2="SITE" data-source-line="37" data-uid="lnk30" id="link_Provider_SITE"><path d="M871.43,122.3069 C725.46,141.9669 449.18,190.4069 237,294.2969 C198.77,313.0169 165.6098,361.616 141.5898,384.106" fill="none" id="Provider-to-SITE" style="stroke:#181818;stroke-width:1;stroke-dasharray:7.0,7.0;"/><polygon fill="#181818" points="137.21,388.2069,146.5137,384.9755,140.8599,384.7895,141.0459,379.1357,137.21,388.2069" style="stroke:#181818;stroke-width:1;"/><text fill="#000000" font-family="sans-serif" font-size="13" lengthAdjust="spacing" textLength="254.7061" x="430" y="245.8638">watch FS changes (debounced refresh)</text></g><!--SRC=[LLF1ZjCm4BtdAqOve5OesmEt7f1AcwMLjcorwNQH0AqSPzfOPEt8Tj9528cFu0lv4cQSf0sNTFpUc_7BcyOhNo6qJfe2an9VJN9Ilcno-Flx3opDIsqqQk_W3Qo45t1RcNCKrK9-5oU4-90jgG_ILu_QAQDZ-1a1VDbRn8F2Cynun8lGXVi6mi7ZXjcqfObmfnmreNLVzMGXlMenBPGt5jx2RGPFmikIo6deksYv_GdpbcRFOMUH2zW9ZLNGzSX_ggNHHtM2VlZaqE0xkkAWF7QpExvpnk-VeMsLnC2j-TnAfhfKnkH7vNlkGsLEZj-P8zfPqwe2RM-eEqI_eaXpKl6TaQA2hP2bqjZ5LL1NBXoHwUVzy_f-cpwlDWynznD0WgEfQ0R4R0SoSWuJHy-LijEWoZRxb6-GbMaAYCdOkidxLTml6by6Bw5YA3EDbGWFM9j0P5PopTIEjkgkJ3WEN3Usms2otkzt6GMv_BJOfjEhcdqyRY19tW_fmHoaHU5nLZTvfLmvE_4k6N0K9uNJwxj0WVIKfz8ahofwK4E1TML-3BfXxtCmDUgPnQD5LqAh1DJ6-IqwHqu6zMM_Gn5G-g7-aNpYH8k939ffD5XdQKXt3F1IXlFDpTXFtLVMDBIa6P0lBwm7fOycwb-F9tIh60732aRGDVjBTSMZuOyL3B13kltCtmn_FB8KEYofmDmqMc81VKZJVm00]--></g></svg>